<svg width="142" height="27" fill="none" xmlns="http://www.w3.org/2000/svg"><path d="M88.97 1.776H1.762v23.448H88.97V1.776z" fill="#0E79BF"/><path d="M141.295 1.776h-50.74v23.448h50.74V1.776z" fill="#fff"/><path d="M102.36 15.987h-3.347l1.762-5.152 1.585 5.152zm-4.58 3.375h5.637l.881 2.31h4.581l-6.695-16.165h-3.523L91.966 21.67h4.933l.88-2.31zM114.163 12.967V9.06h1.234c1.938 0 2.819.533 2.819 1.954 0 1.421-1.058 1.954-3.172 1.954h-.881zm0 8.704V16.52l3.348 5.151h5.285l-4.228-5.506c2.466-.711 3.876-2.665 3.876-5.152 0-1.954-.881-3.552-2.29-4.44-1.234-.711-2.467-.889-4.405-.889h-5.638V21.85h4.052v-.178zM124.03 21.671V5.507h4.229v7.638l4.933-7.638h4.756l-5.637 8.17 5.461 7.994h-5.109l-4.404-6.928v6.928" fill="#010101"/><path d="M9.866 12.967v-3.73h1.057c1.938 0 2.819.533 2.819 1.954 0 1.42-1.057 1.954-3.171 1.954l-.705-.178zm0 8.704V16.52h1.233c1.762 0 3.171-.178 4.229-.71 1.761-.889 2.818-2.665 2.818-4.797 0-1.954-.88-3.552-2.29-4.618-1.41-.71-2.819-.888-4.58-.888H5.637V21.67h4.228zM19.556 21.671V5.507h4.228v12.611h4.757v3.553M39.816 15.987h-3.347l1.761-5.152 1.586 5.152zm-4.58 3.375h5.637l.881 2.31h4.58L39.64 5.506h-3.348L29.598 21.67h4.58l1.057-2.31zM47.92 21.671V5.507h3.877l6.342 9.059v-9.06h4.228v16.165h-3.7L52.15 12.79v8.881M64.306 21.671V5.507h9.337v3.73h-5.109v2.487h5.11v3.552h-5.11v2.842h5.11v3.553M78.4 21.671V9.414h-3.172V5.507h10.747v3.907h-3.347v12.257" fill="#fff"/><path d="M0 27h142V0H0v27zM1.762 1.776H88.97v23.27H1.762V1.776zm138.476 23.448H90.556V1.776h49.506v23.448h.176z" fill="#010101"/><path d="M137.419 2.842h-.529v1.243h-.176V2.842h-.528v-.355h1.233v.355zm1.938 1.243h-.176V2.842l-.529 1.243h-.176l-.529-1.243v1.243h-.176V2.487h.353l.528 1.066.529-1.066h.352v1.598h-.176z" fill="#010101"/></svg>