<?xml version="1.0" encoding="utf-8"?>
<!-- Generator: Adobe Illustrator 16.0.0, SVG Export Plug-In . SVG Version: 6.00 Build 0)  -->
<!DOCTYPE svg PUBLIC "-//W3C//DTD SVG 1.1//EN" "http://www.w3.org/Graphics/SVG/1.1/DTD/svg11.dtd">
<svg version="1.1" id="Layer_1" xmlns="http://www.w3.org/2000/svg" xmlns:xlink="http://www.w3.org/1999/xlink" x="0px" y="0px"
	 width="19.52px" height="24.298px" viewBox="27.74 5.25 19.52 24.298" enable-background="new 27.74 5.25 19.52 24.298"
	 xml:space="preserve">
<path fill="#72EF36" d="M44.433,11.914c-0.202-0.135-0.337-0.336-0.337-0.606C43.76,7.942,40.933,5.25,37.5,5.25
	s-6.327,2.625-6.596,6.058c0,0.202-0.135,0.471-0.336,0.606c-1.683,1.211-2.827,3.164-2.827,5.384c0,3.029,2.087,5.654,4.914,6.395
	l0,0c0.471,0.135,1.01,0.202,1.144,0.067c0.337-0.202,0.808-1.885,0.606-2.221c-0.135-0.203-0.539-0.404-1.077-0.539l0,0
	c-1.683-0.471-2.895-1.952-2.895-3.769c0-1.01,0.404-1.885,1.01-2.625c0.269-0.337,0.605-0.606,1.01-0.808
	c0.74-0.404,1.144-1.144,1.144-1.952l0,0c0-0.404,0.067-0.808,0.202-1.211c0.539-1.548,1.952-2.692,3.702-2.692
	s3.164,1.144,3.702,2.692c0.134,0.404,0.202,0.808,0.202,1.211l0,0c0,0.808,0.403,1.548,1.144,1.952
	c0.404,0.202,0.673,0.471,1.01,0.808c0.606,0.673,1.01,1.615,1.01,2.625c0,2.154-1.75,3.904-3.903,3.904
	c-2.491,0-4.443,2.02-4.443,4.51v2.558c0,0.471,0.067,1.009,0.202,1.144c0.27,0.27,2.02,0.27,2.288,0
	c0.135-0.135,0.203-0.673,0.203-1.144l0,0v-2.625c0-0.942,0.807-1.75,1.75-1.75c3.634,0,6.596-2.962,6.596-6.596
	C47.26,15.077,46.115,13.125,44.433,11.914z"/>
</svg>
